<svg width="26" height="26" fill="none" xmlns="http://www.w3.org/2000/svg"><path opacity=".2" d="M8.937 13.698l13.824-9.984a.8.8 0 00-.631-.016L3.384 11.062a.812.812 0 00.138 1.553l5.414 1.083zm4.561 4.014l-3.173 3.174a.813.813 0 01-1.387-.575v-6.613l4.56 4.014z" fill="#fff"/><path d="M23.487 3.223a1.621 1.621 0 00-1.654-.28L3.087 10.305a1.625 1.625 0 00.276 3.106l4.761.952v5.947a1.624 1.624 0 002.774 1.15l2.635-2.636 4 3.52a1.612 1.612 0 001.571.326 1.611 1.611 0 001.085-1.183l3.82-16.67a1.621 1.621 0 00-.523-1.595zM8.749 12.832l-5.066-1.014 14.186-5.573-9.12 6.587zM9.75 20.31v-4.815l2.562 2.254L9.75 20.31zm8.857.814l-8.368-7.363 12.05-8.703-3.683 16.066z" fill="#fff"/></svg>