<svg width="26" height="26" fill="none" xmlns="http://www.w3.org/2000/svg"><path d="M12.756 3.25c-1.544 0-5.362.163-7.394 2.112C3.9 6.744 3.332 8.857 3.25 11.375c-.163 3.981.731 6.5 2.194 7.8.325.244 1.137.894 2.68 1.381v2.031s0 .813.488.976c.082 0 .163.08.244.08.488 0 .894-.568 1.463-1.137.487-.569.893-.975 1.137-1.381h1.788c1.543 0 5.362-.163 7.393-2.113 1.463-1.462 2.032-3.575 2.032-6.256.08-.406.08-.893.08-1.381-.08-3.006-.974-5.037-2.193-6.175-.487-.406-2.6-1.95-7.15-1.95h-.65zm-.162 1.544h.73c4.307 0 5.932 1.381 6.095 1.544.975.812 1.543 2.6 1.625 4.956v.325c.08.487.08.893.08 1.137-.08 2.438-.568 4.063-1.543 5.119-1.706 1.544-5.281 1.625-6.256 1.625H11.78l-1.3 1.462-.812.894-.163.244c-.162.162-.406.487-.569.569v-3.657c-1.625-.406-2.275-.974-2.437-1.137-1.138-.975-1.788-3.331-1.625-6.5v-.813c.162-1.95.65-3.25 1.462-4.143 1.707-1.544 5.282-1.625 6.257-1.625zm-.082 1.787a.285.285 0 000 .569c3.007 0 5.607 2.031 5.607 5.85 0 .406.568.406.568 0 0-4.144-2.762-6.5-6.175-6.419zm-3.22.752a.71.71 0 00-.516.141c-.813.406-1.626 1.22-1.382 2.114 0 0 .162.73 1.056 2.275.487.73.894 1.38 1.3 1.868.406.569 1.056 1.219 1.706 1.707 1.3 1.056 3.331 2.112 4.225 2.356.813.244 1.706-.569 2.113-1.381a.775.775 0 00-.244-.976c-.488-.487-1.3-1.056-1.869-1.38-.406-.245-.894-.082-1.056.162l-.406.487c-.163.244-.57.244-.57.244-2.68-.731-3.412-3.494-3.412-3.494s0-.325.244-.569l.488-.406c.243-.162.406-.65.162-1.056-.162-.244-.406-.731-.65-.975a24.575 24.575 0 00-.731-.894.782.782 0 00-.457-.223zm3.79.873c-.407-.081-.488.569-.082.569 2.275.162 3.575 1.706 3.494 3.656-.082.407.568.407.568 0 .082-2.275-1.38-4.143-3.98-4.225zm.243 1.544c-.406-.081-.406.569 0 .569.975 0 1.462.568 1.462 1.543.082.407.65.407.65 0-.08-1.3-.812-2.112-2.112-2.112z" fill="#fff"/></svg>