<svg width="26" height="26" fill="none" xmlns="http://www.w3.org/2000/svg"><path d="M13.043 2.167c-5.915 0-10.735 4.82-10.735 10.735 0 1.896.498 3.738 1.43 5.363L2.22 23.833l5.687-1.495a10.738 10.738 0 005.135 1.311c5.915 0 10.736-4.82 10.736-10.736 0-2.87-1.116-5.568-3.141-7.594a10.634 10.634 0 00-7.595-3.152zm.011 1.809a8.85 8.85 0 016.305 2.621 8.91 8.91 0 012.611 6.316c0 4.919-4.008 8.916-8.927 8.916a8.777 8.777 0 01-4.539-1.246L8.18 20.4l-3.38.888.9-3.293-.217-.347a8.87 8.87 0 01-1.365-4.745c.01-4.918 4.008-8.926 8.937-8.926zM9.241 7.94a.99.99 0 00-.715.336c-.238.27-.943.931-.943 2.242 0 1.322.965 2.59 1.084 2.773.151.185 1.906 2.893 4.604 4.041.64.293 1.137.455 1.527.574.64.206 1.225.174 1.69.109.52-.076 1.582-.65 1.81-1.279.227-.628.227-1.159.162-1.278-.076-.108-.25-.173-.52-.292-.27-.152-1.592-.802-1.83-.889-.25-.086-.402-.13-.607.13-.174.271-.694.878-.845 1.051-.163.184-.315.206-.575.076-.281-.14-1.148-.423-2.166-1.333-.802-.715-1.333-1.592-1.495-1.863-.13-.26-.011-.422.119-.542a3.5 3.5 0 00.4-.476c.142-.152.185-.271.272-.444.086-.185.043-.336-.022-.466-.065-.12-.607-1.463-.834-1.994-.217-.52-.434-.455-.607-.465-.152 0-.325-.011-.51-.011z" fill="#fff"/></svg>